<svg width="145" height="145" viewBox="0 0 145 145" fill="none" xmlns="http://www.w3.org/2000/svg">
<rect x="1.5" y="1.5" width="142" height="142" rx="23" fill="black"/>
<rect x="1.5" y="1.5" width="142" height="142" rx="23" stroke="url(#paint0_linear_5813_34)" stroke-width="2"/>
<path d="M52.6868 99.7562C51.6637 99.7572 50.6753 99.3853 49.9066 98.7101L24.1566 76.1788C23.7037 75.7823 23.3408 75.2936 23.0921 74.7454C22.8435 74.1972 22.7148 73.6022 22.7148 73.0003C22.7148 72.3984 22.8435 71.8034 23.0921 71.2552C23.3408 70.707 23.7037 70.2183 24.1566 69.8218L49.9066 47.2905C50.7498 46.5526 51.8517 46.18 52.9697 46.2545C54.0878 46.329 55.1304 46.8446 55.8683 47.6878C56.6062 48.5311 56.9789 49.633 56.9044 50.751C56.8299 51.869 56.3143 52.9117 55.471 53.6496L33.3521 73.0003L55.469 92.351C56.1163 92.9169 56.5755 93.6669 56.7853 94.5007C56.9951 95.3345 56.9455 96.2125 56.6431 97.0174C56.3407 97.8223 55.7999 98.5157 55.093 99.0051C54.386 99.4945 53.5466 99.7565 52.6868 99.7562ZM91.3118 99.7562C90.4518 99.7569 89.6121 99.4952 88.9048 99.0059C88.1975 98.5167 87.6564 97.8233 87.3538 97.0183C87.0511 96.2134 87.0014 95.3352 87.2111 94.5012C87.4208 93.6672 87.8801 92.917 88.5276 92.351L110.646 73.0003L88.5296 53.6496C87.6863 52.9117 87.1707 51.869 87.0962 50.751C87.0217 49.633 87.3944 48.5311 88.1323 47.6878C88.8701 46.8446 89.9128 46.329 91.0308 46.2545C92.1489 46.18 93.2507 46.5526 94.094 47.2905L119.844 69.8218C120.297 70.2183 120.66 70.707 120.908 71.2552C121.157 71.8034 121.286 72.3984 121.286 73.0003C121.286 73.6022 121.157 74.1972 120.908 74.7454C120.66 75.2936 120.297 75.7823 119.844 76.1788L94.094 98.7101C93.325 99.386 92.3356 99.758 91.3118 99.7562Z" fill="url(#paint1_linear_5813_34)"/>
<circle cx="59" cy="74.5" r="5" fill="white"/>
<circle cx="72" cy="74.5" r="5" fill="white"/>
<circle cx="85" cy="74.5" r="5" fill="white"/>
<defs>
<linearGradient id="paint0_linear_5813_34" x1="7.41228" y1="2.49999" x2="105.051" y2="31.0063" gradientUnits="userSpaceOnUse">
<stop stop-color="#323EC3"/>
<stop offset="1" stop-color="#7800E2"/>
</linearGradient>
<linearGradient id="paint1_linear_5813_34" x1="26.1735" y1="46.2451" x2="84.0414" y2="77.3667" gradientUnits="userSpaceOnUse">
<stop stop-color="#323EC3"/>
<stop offset="1" stop-color="#7800E2"/>
</linearGradient>
</defs>
</svg>
