<svg width="145" height="145" viewBox="0 0 145 145" fill="none" xmlns="http://www.w3.org/2000/svg">
<rect x="1.5" y="1.5" width="142" height="142" rx="23" fill="black"/>
<rect x="1.5" y="1.5" width="142" height="142" rx="23" stroke="url(#paint0_linear_5813_75)" stroke-width="2"/>
<path d="M71.7125 72.25C71.6333 75.9312 70.8417 79.0979 68.8625 81.7896L70.8417 83.7687L67.5563 87.0938L65.4583 84.9958C63.2021 86.4208 60.55 87.0938 57.8979 87.0938C53.8208 87.0938 49.8625 85.5104 47.4083 82.4229C45.1125 79.6521 44.0833 76.05 44.0833 72.25C44.0833 68.45 45.1125 64.8083 47.4083 62.0375C49.9021 58.9104 53.7813 57.4062 57.8979 57.4062C62.0146 57.4062 65.8542 58.95 68.3875 62.0375C70.8021 64.9667 71.6333 68.45 71.7125 72.25ZM57.8979 82.0271C59.2042 82.0667 60.5104 81.7896 61.6583 81.1958L59.2438 78.8208L62.5688 75.4958L64.9042 77.8312C65.7354 76.1687 66.0125 74.1896 66.0125 72.25C66.0125 69.7562 65.5375 67.1833 64.1125 65.3229C62.6875 63.4229 60.3521 62.4333 57.8979 62.4729C55.4438 62.4333 53.0688 63.4229 51.6833 65.3229C50.2188 67.1833 49.7833 69.7562 49.7438 72.25C49.7833 74.7437 50.2188 77.2771 51.6833 79.1771C53.0688 81.0771 55.4438 82.0667 57.8979 82.0271ZM94.9291 86.5L93.5437 82.0667H81.9062L80.5604 86.5H75.0187L83.727 58H91.7624L100.471 86.5H94.9291ZM83.4499 77H91.9999L87.6854 63.0667L83.4499 77Z" fill="url(#paint1_linear_5813_75)"/>
<rect width="51" height="51" transform="translate(63.5 58.5)" fill="black" fill-opacity="0.01"/>
<path d="M85.7043 65.0576C82.6095 65.0576 79.5842 65.9753 77.0109 67.6947C74.4377 69.4141 72.4321 71.8579 71.2478 74.7172C70.0634 77.5764 69.7535 80.7226 70.3573 83.758C70.9611 86.7933 72.4514 89.5814 74.6397 91.7698C76.8281 93.9582 79.6162 95.4485 82.6516 96.0522C85.6869 96.656 88.8331 96.3461 91.6924 95.1618C94.5516 93.9775 96.9954 91.9719 98.7148 89.3986C100.434 86.8254 101.352 83.8001 101.352 80.7053C101.352 76.5553 99.703 72.5754 96.7685 69.641C93.8341 66.7066 89.8542 65.0579 85.7043 65.0576Z" stroke="white" stroke-width="4.37143" stroke-miterlimit="10"/>
<path d="M97.3789 92.3789L108.307 103.307" stroke="white" stroke-width="4.37143" stroke-miterlimit="10" stroke-linecap="round"/>
<defs>
<linearGradient id="paint0_linear_5813_75" x1="7.41228" y1="2.49999" x2="105.051" y2="31.0063" gradientUnits="userSpaceOnUse">
<stop stop-color="#323EC3"/>
<stop offset="1" stop-color="#7800E2"/>
</linearGradient>
<linearGradient id="paint1_linear_5813_75" x1="44.5702" y1="49.5" x2="83.5185" y2="64.4089" gradientUnits="userSpaceOnUse">
<stop stop-color="#323EC3"/>
<stop offset="1" stop-color="#7800E2"/>
</linearGradient>
</defs>
</svg>
